<mxfile host="app.diagrams.net" modified="2024-03-08T19:12:20.689Z" agent="Mozilla/5.0 (Windows NT 10.0; Win64; x64; rv:122.0) Gecko/20100101 Firefox/122.0" etag="9Tx4J5qtoXornt22QCH1" version="24.0.2" type="device">
  <diagram name="Página-1" id="IyP8DB76coCotEFBEaCT">
    <mxGraphModel dx="1434" dy="820" grid="1" gridSize="10" guides="1" tooltips="1" connect="1" arrows="1" fold="1" page="1" pageScale="1" pageWidth="827" pageHeight="1169" math="0" shadow="0">
      <root>
        <mxCell id="0" />
        <mxCell id="1" parent="0" />
        <mxCell id="bldFRLK-eeammJ6lwJ_y-1" value="" style="shape=table;startSize=0;container=1;collapsible=0;childLayout=tableLayout;fontSize=16;" vertex="1" parent="1">
          <mxGeometry x="320" y="120" width="350" height="40" as="geometry" />
        </mxCell>
        <mxCell id="bldFRLK-eeammJ6lwJ_y-2" value="" style="shape=tableRow;horizontal=0;startSize=0;swimlaneHead=0;swimlaneBody=0;strokeColor=inherit;top=0;left=0;bottom=0;right=0;collapsible=0;dropTarget=0;fillColor=none;points=[[0,0.5],[1,0.5]];portConstraint=eastwest;fontSize=16;" vertex="1" parent="bldFRLK-eeammJ6lwJ_y-1">
          <mxGeometry width="350" height="40" as="geometry" />
        </mxCell>
        <mxCell id="bldFRLK-eeammJ6lwJ_y-3" value="&lt;u&gt;&lt;font style=&quot;font-size: 15px;&quot;&gt;Número&lt;/font&gt;&lt;/u&gt;" style="shape=partialRectangle;html=1;whiteSpace=wrap;connectable=0;strokeColor=inherit;overflow=hidden;fillColor=none;top=0;left=0;bottom=0;right=0;pointerEvents=1;fontSize=16;" vertex="1" parent="bldFRLK-eeammJ6lwJ_y-2">
          <mxGeometry width="117" height="40" as="geometry">
            <mxRectangle width="117" height="40" as="alternateBounds" />
          </mxGeometry>
        </mxCell>
        <mxCell id="bldFRLK-eeammJ6lwJ_y-4" value="Data" style="shape=partialRectangle;html=1;whiteSpace=wrap;connectable=0;strokeColor=inherit;overflow=hidden;fillColor=none;top=0;left=0;bottom=0;right=0;pointerEvents=1;fontSize=16;" vertex="1" parent="bldFRLK-eeammJ6lwJ_y-2">
          <mxGeometry x="117" width="116" height="40" as="geometry">
            <mxRectangle width="116" height="40" as="alternateBounds" />
          </mxGeometry>
        </mxCell>
        <mxCell id="bldFRLK-eeammJ6lwJ_y-14" value="&lt;u&gt;NIF Fornecedor(FK)&lt;br&gt;&lt;/u&gt;" style="shape=partialRectangle;html=1;whiteSpace=wrap;connectable=0;strokeColor=inherit;overflow=hidden;fillColor=none;top=0;left=0;bottom=0;right=0;pointerEvents=1;fontSize=16;" vertex="1" parent="bldFRLK-eeammJ6lwJ_y-2">
          <mxGeometry x="233" width="117" height="40" as="geometry">
            <mxRectangle width="117" height="40" as="alternateBounds" />
          </mxGeometry>
        </mxCell>
        <mxCell id="bldFRLK-eeammJ6lwJ_y-15" value="&lt;font style=&quot;font-size: 15px;&quot;&gt;Encomenda&lt;/font&gt;" style="text;html=1;align=center;verticalAlign=middle;resizable=0;points=[];autosize=1;strokeColor=none;fillColor=none;" vertex="1" parent="1">
          <mxGeometry x="320" y="90" width="100" height="30" as="geometry" />
        </mxCell>
        <mxCell id="bldFRLK-eeammJ6lwJ_y-16" value="" style="shape=table;startSize=0;container=1;collapsible=0;childLayout=tableLayout;fontSize=16;" vertex="1" parent="1">
          <mxGeometry x="320" y="240" width="540" height="40" as="geometry" />
        </mxCell>
        <mxCell id="bldFRLK-eeammJ6lwJ_y-17" value="" style="shape=tableRow;horizontal=0;startSize=0;swimlaneHead=0;swimlaneBody=0;strokeColor=inherit;top=0;left=0;bottom=0;right=0;collapsible=0;dropTarget=0;fillColor=none;points=[[0,0.5],[1,0.5]];portConstraint=eastwest;fontSize=16;" vertex="1" parent="bldFRLK-eeammJ6lwJ_y-16">
          <mxGeometry width="540" height="40" as="geometry" />
        </mxCell>
        <mxCell id="bldFRLK-eeammJ6lwJ_y-18" value="&lt;u&gt;NIF&lt;/u&gt;" style="shape=partialRectangle;html=1;whiteSpace=wrap;connectable=0;strokeColor=inherit;overflow=hidden;fillColor=none;top=0;left=0;bottom=0;right=0;pointerEvents=1;fontSize=16;" vertex="1" parent="bldFRLK-eeammJ6lwJ_y-17">
          <mxGeometry width="90" height="40" as="geometry">
            <mxRectangle width="90" height="40" as="alternateBounds" />
          </mxGeometry>
        </mxCell>
        <mxCell id="bldFRLK-eeammJ6lwJ_y-19" value="Nome" style="shape=partialRectangle;html=1;whiteSpace=wrap;connectable=0;strokeColor=inherit;overflow=hidden;fillColor=none;top=0;left=0;bottom=0;right=0;pointerEvents=1;fontSize=16;" vertex="1" parent="bldFRLK-eeammJ6lwJ_y-17">
          <mxGeometry x="90" width="90" height="40" as="geometry">
            <mxRectangle width="90" height="40" as="alternateBounds" />
          </mxGeometry>
        </mxCell>
        <mxCell id="bldFRLK-eeammJ6lwJ_y-20" value="&lt;div&gt;condições&lt;/div&gt;&lt;div&gt;pagamento&lt;br&gt;&lt;/div&gt;" style="shape=partialRectangle;html=1;whiteSpace=wrap;connectable=0;strokeColor=inherit;overflow=hidden;fillColor=none;top=0;left=0;bottom=0;right=0;pointerEvents=1;fontSize=16;" vertex="1" parent="bldFRLK-eeammJ6lwJ_y-17">
          <mxGeometry x="180" width="90" height="40" as="geometry">
            <mxRectangle width="90" height="40" as="alternateBounds" />
          </mxGeometry>
        </mxCell>
        <mxCell id="bldFRLK-eeammJ6lwJ_y-24" value="Endereço" style="shape=partialRectangle;html=1;whiteSpace=wrap;connectable=0;strokeColor=inherit;overflow=hidden;fillColor=none;top=0;left=0;bottom=0;right=0;pointerEvents=1;fontSize=16;" vertex="1" parent="bldFRLK-eeammJ6lwJ_y-17">
          <mxGeometry x="270" width="90" height="40" as="geometry">
            <mxRectangle width="90" height="40" as="alternateBounds" />
          </mxGeometry>
        </mxCell>
        <mxCell id="bldFRLK-eeammJ6lwJ_y-23" value="Número Fax" style="shape=partialRectangle;html=1;whiteSpace=wrap;connectable=0;strokeColor=inherit;overflow=hidden;fillColor=none;top=0;left=0;bottom=0;right=0;pointerEvents=1;fontSize=16;" vertex="1" parent="bldFRLK-eeammJ6lwJ_y-17">
          <mxGeometry x="360" width="90" height="40" as="geometry">
            <mxRectangle width="90" height="40" as="alternateBounds" />
          </mxGeometry>
        </mxCell>
        <mxCell id="bldFRLK-eeammJ6lwJ_y-22" value="&lt;u&gt;Código Tipo(FK)&lt;/u&gt;" style="shape=partialRectangle;html=1;whiteSpace=wrap;connectable=0;strokeColor=inherit;overflow=hidden;fillColor=none;top=0;left=0;bottom=0;right=0;pointerEvents=1;fontSize=16;" vertex="1" parent="bldFRLK-eeammJ6lwJ_y-17">
          <mxGeometry x="450" width="90" height="40" as="geometry">
            <mxRectangle width="90" height="40" as="alternateBounds" />
          </mxGeometry>
        </mxCell>
        <mxCell id="bldFRLK-eeammJ6lwJ_y-21" value="&lt;font style=&quot;font-size: 15px;&quot;&gt;Fornecedor&lt;/font&gt;" style="text;html=1;align=center;verticalAlign=middle;resizable=0;points=[];autosize=1;strokeColor=none;fillColor=none;" vertex="1" parent="1">
          <mxGeometry x="300" y="210" width="100" height="30" as="geometry" />
        </mxCell>
        <mxCell id="bldFRLK-eeammJ6lwJ_y-25" value="" style="shape=table;startSize=0;container=1;collapsible=0;childLayout=tableLayout;fontSize=16;" vertex="1" parent="1">
          <mxGeometry x="320" y="360" width="200" height="40" as="geometry" />
        </mxCell>
        <mxCell id="bldFRLK-eeammJ6lwJ_y-26" value="" style="shape=tableRow;horizontal=0;startSize=0;swimlaneHead=0;swimlaneBody=0;strokeColor=inherit;top=0;left=0;bottom=0;right=0;collapsible=0;dropTarget=0;fillColor=none;points=[[0,0.5],[1,0.5]];portConstraint=eastwest;fontSize=16;" vertex="1" parent="bldFRLK-eeammJ6lwJ_y-25">
          <mxGeometry width="200" height="40" as="geometry" />
        </mxCell>
        <mxCell id="bldFRLK-eeammJ6lwJ_y-27" value="&lt;u&gt;Código&lt;/u&gt;" style="shape=partialRectangle;html=1;whiteSpace=wrap;connectable=0;strokeColor=inherit;overflow=hidden;fillColor=none;top=0;left=0;bottom=0;right=0;pointerEvents=1;fontSize=16;" vertex="1" parent="bldFRLK-eeammJ6lwJ_y-26">
          <mxGeometry width="100" height="40" as="geometry">
            <mxRectangle width="100" height="40" as="alternateBounds" />
          </mxGeometry>
        </mxCell>
        <mxCell id="bldFRLK-eeammJ6lwJ_y-28" value="Designação" style="shape=partialRectangle;html=1;whiteSpace=wrap;connectable=0;strokeColor=inherit;overflow=hidden;fillColor=none;top=0;left=0;bottom=0;right=0;pointerEvents=1;fontSize=16;" vertex="1" parent="bldFRLK-eeammJ6lwJ_y-26">
          <mxGeometry x="100" width="100" height="40" as="geometry">
            <mxRectangle width="100" height="40" as="alternateBounds" />
          </mxGeometry>
        </mxCell>
        <mxCell id="bldFRLK-eeammJ6lwJ_y-30" value="&lt;font style=&quot;font-size: 15px;&quot;&gt;Tipo Fornecedor&lt;/font&gt;" style="text;html=1;align=center;verticalAlign=middle;resizable=0;points=[];autosize=1;strokeColor=none;fillColor=none;" vertex="1" parent="1">
          <mxGeometry x="305" y="330" width="130" height="30" as="geometry" />
        </mxCell>
        <mxCell id="bldFRLK-eeammJ6lwJ_y-37" value="" style="shape=table;startSize=0;container=1;collapsible=0;childLayout=tableLayout;fontSize=16;" vertex="1" parent="1">
          <mxGeometry x="320" y="510" width="560" height="40" as="geometry" />
        </mxCell>
        <mxCell id="bldFRLK-eeammJ6lwJ_y-38" value="" style="shape=tableRow;horizontal=0;startSize=0;swimlaneHead=0;swimlaneBody=0;strokeColor=inherit;top=0;left=0;bottom=0;right=0;collapsible=0;dropTarget=0;fillColor=none;points=[[0,0.5],[1,0.5]];portConstraint=eastwest;fontSize=16;" vertex="1" parent="bldFRLK-eeammJ6lwJ_y-37">
          <mxGeometry width="560" height="40" as="geometry" />
        </mxCell>
        <mxCell id="bldFRLK-eeammJ6lwJ_y-39" value="&lt;u&gt;Código&lt;/u&gt;" style="shape=partialRectangle;html=1;whiteSpace=wrap;connectable=0;strokeColor=inherit;overflow=hidden;fillColor=none;top=0;left=0;bottom=0;right=0;pointerEvents=1;fontSize=16;" vertex="1" parent="bldFRLK-eeammJ6lwJ_y-38">
          <mxGeometry width="93" height="40" as="geometry">
            <mxRectangle width="93" height="40" as="alternateBounds" />
          </mxGeometry>
        </mxCell>
        <mxCell id="bldFRLK-eeammJ6lwJ_y-40" value="Nome" style="shape=partialRectangle;html=1;whiteSpace=wrap;connectable=0;strokeColor=inherit;overflow=hidden;fillColor=none;top=0;left=0;bottom=0;right=0;pointerEvents=1;fontSize=16;" vertex="1" parent="bldFRLK-eeammJ6lwJ_y-38">
          <mxGeometry x="93" width="94" height="40" as="geometry">
            <mxRectangle width="94" height="40" as="alternateBounds" />
          </mxGeometry>
        </mxCell>
        <mxCell id="bldFRLK-eeammJ6lwJ_y-41" value="Preço" style="shape=partialRectangle;html=1;whiteSpace=wrap;connectable=0;strokeColor=inherit;overflow=hidden;fillColor=none;top=0;left=0;bottom=0;right=0;pointerEvents=1;fontSize=16;" vertex="1" parent="bldFRLK-eeammJ6lwJ_y-38">
          <mxGeometry x="187" width="93" height="40" as="geometry">
            <mxRectangle width="93" height="40" as="alternateBounds" />
          </mxGeometry>
        </mxCell>
        <mxCell id="bldFRLK-eeammJ6lwJ_y-42" value="IVA" style="shape=partialRectangle;html=1;whiteSpace=wrap;connectable=0;strokeColor=inherit;overflow=hidden;fillColor=none;top=0;left=0;bottom=0;right=0;pointerEvents=1;fontSize=16;" vertex="1" parent="bldFRLK-eeammJ6lwJ_y-38">
          <mxGeometry x="280" width="93" height="40" as="geometry">
            <mxRectangle width="93" height="40" as="alternateBounds" />
          </mxGeometry>
        </mxCell>
        <mxCell id="bldFRLK-eeammJ6lwJ_y-43" value="stock" style="shape=partialRectangle;html=1;whiteSpace=wrap;connectable=0;strokeColor=inherit;overflow=hidden;fillColor=none;top=0;left=0;bottom=0;right=0;pointerEvents=1;fontSize=16;" vertex="1" parent="bldFRLK-eeammJ6lwJ_y-38">
          <mxGeometry x="373" width="94" height="40" as="geometry">
            <mxRectangle width="94" height="40" as="alternateBounds" />
          </mxGeometry>
        </mxCell>
        <mxCell id="bldFRLK-eeammJ6lwJ_y-44" value="&lt;u&gt;Número(FK)&lt;/u&gt;" style="shape=partialRectangle;html=1;whiteSpace=wrap;connectable=0;strokeColor=inherit;overflow=hidden;fillColor=none;top=0;left=0;bottom=0;right=0;pointerEvents=1;fontSize=16;" vertex="1" parent="bldFRLK-eeammJ6lwJ_y-38">
          <mxGeometry x="467" width="93" height="40" as="geometry">
            <mxRectangle width="93" height="40" as="alternateBounds" />
          </mxGeometry>
        </mxCell>
        <mxCell id="bldFRLK-eeammJ6lwJ_y-45" value="&lt;font style=&quot;font-size: 15px;&quot;&gt;Produto&lt;/font&gt;" style="text;html=1;align=center;verticalAlign=middle;resizable=0;points=[];autosize=1;strokeColor=none;fillColor=none;" vertex="1" parent="1">
          <mxGeometry x="335" y="480" width="70" height="30" as="geometry" />
        </mxCell>
        <mxCell id="bldFRLK-eeammJ6lwJ_y-46" value="" style="endArrow=classic;html=1;rounded=0;entryX=0.25;entryY=1;entryDx=0;entryDy=0;" edge="1" parent="1" target="bldFRLK-eeammJ6lwJ_y-1">
          <mxGeometry width="50" height="50" relative="1" as="geometry">
            <mxPoint x="830" y="550" as="sourcePoint" />
            <mxPoint x="880" y="500" as="targetPoint" />
            <Array as="points">
              <mxPoint x="830" y="590" />
              <mxPoint x="260" y="590" />
              <mxPoint x="260" y="190" />
              <mxPoint x="407" y="190" />
            </Array>
          </mxGeometry>
        </mxCell>
        <mxCell id="bldFRLK-eeammJ6lwJ_y-47" value="" style="endArrow=classic;html=1;rounded=0;entryX=0.25;entryY=1;entryDx=0;entryDy=0;" edge="1" parent="1" target="bldFRLK-eeammJ6lwJ_y-25">
          <mxGeometry width="50" height="50" relative="1" as="geometry">
            <mxPoint x="820" y="280" as="sourcePoint" />
            <mxPoint x="870" y="230" as="targetPoint" />
            <Array as="points">
              <mxPoint x="820" y="440" />
              <mxPoint x="370" y="440" />
            </Array>
          </mxGeometry>
        </mxCell>
        <mxCell id="bldFRLK-eeammJ6lwJ_y-48" value="" style="endArrow=classic;html=1;rounded=0;entryX=0.143;entryY=-0.05;entryDx=0;entryDy=0;entryPerimeter=0;" edge="1" parent="1" target="bldFRLK-eeammJ6lwJ_y-17">
          <mxGeometry width="50" height="50" relative="1" as="geometry">
            <mxPoint x="600" y="160" as="sourcePoint" />
            <mxPoint x="650" y="110" as="targetPoint" />
            <Array as="points">
              <mxPoint x="600" y="220" />
              <mxPoint x="397" y="220" />
            </Array>
          </mxGeometry>
        </mxCell>
      </root>
    </mxGraphModel>
  </diagram>
</mxfile>
